Cover 

 
http://desibbrg.org/images/23387168736056816626.jpg


Screens
 
http://desibbrg.org/images/03714187828859358835.png 
http://desibbrg.org/images/62675608757333743543.png 
http://desibbrg.org/images/50963583204273542717.png 
http://desibbrg.org/images/13185472699726127133.png 
http://desibbrg.org/images/93873246301907063500.png 
http://desibbrg.org/images/36008355043822012228.png 
http://desibbrg.org/images/48415439762461488653.png 
http://desibbrg.org/images/08697397682511456383.png 
http://desibbrg.org/images/94868568716712790372.png

 
http://www.imdb.com/title/tt0157571/

Ek Ruka Hua Faisla Cast & Crew:

    Banner

    Release Date
    1 Jan 1986

    Genre
    Drama

    Producer
    Basu Chatterjee

    Star Cast
    Pankaj Kapoor.... Juror #3
    K K Raina.... Juror #8
    Annu Kapoor.... Juror #9
    M K Raina.... Juror #7
    Deepak Qazir.... Juror #1
    S. M. Zaheer
    Subbiraj.... Juror #10
    Amitabh Bachchan.... Guest Appearance
    Amit Srivastava.... Juror #2

Format : AVI
Format/Info : Audio Video Interleave
File size : 1.37 GiB
Duration : 2h 7mn
Overall bit rate : 1 534 Kbps
Writing application : VirtualDubMod 1.5.10.2 (build 2542/release)
Writing library : VirtualDubMod build 2542/release

Video
ID : 0
Format : MPEG-4 Visual
Format profile : Advanced Simple@L5
Format settings, BVOP : 2
Format settings, QPel : Yes
Format settings, GMC : No warppoints
Format settings, Matrix : Custom
Codec ID : XVID
Codec ID/Hint : XviD
Duration : 2h 7mn
Bit rate : 1 077 Kbps
Width : 656 pixels
Height : 480 pixels
Display aspect ratio : 4:3
Frame rate : 23.976 fps
Color space : YUV
Chroma subsampling : 4:2:0
Bit depth : 8 bits
Scan type : Progressive
Compression mode : Lossy
Bits/(Pixel*Frame) : 0.143
Stream size : 982 MiB (70%)
Writing library : XviD 1.2.1 (UTC 2008-12-04)

Audio
ID : 1
Format : AC-3
Format/Info : Audio Coding 3
Mode extension : CM (complete main)
Codec ID : 2000
Duration : 2h 7mn
Bit rate mode : Constant
Bit rate : 448 Kbps
Channel(s) : 6 channels
Channel positions : Front: L C R, Side: L R, LFE
Sampling rate : 48.0 KHz
Bit depth : 16 bits
Compression mode : Lossy
Stream size : 409 MiB (29%)
Alignment : Split accross interleaves
Interleave, duration : 42 ms (1.00 video frame)
Interleave, preload duration : 500 ms